<svg width="24" height="25" viewBox="0 0 24 25" fill="none" xmlns="http://www.w3.org/2000/svg">
<path d="M17.25 3.93384H6.75C6.35218 3.93384 5.97064 4.09187 5.68934 4.37318C5.40804 4.65448 5.25 5.03601 5.25 5.43384V21.9338C5.25007 22.0677 5.28595 22.1991 5.35393 22.3144C5.42191 22.4297 5.5195 22.5247 5.63659 22.5895C5.75367 22.6544 5.88598 22.6867 6.01978 22.6832C6.15358 22.6797 6.284 22.6404 6.3975 22.5695L12 19.0679L17.6034 22.5695C17.7169 22.6402 17.8472 22.6792 17.9809 22.6826C18.1146 22.686 18.2467 22.6537 18.3636 22.5888C18.4806 22.524 18.5781 22.4291 18.646 22.3139C18.7139 22.1988 18.7498 22.0675 18.75 21.9338V5.43384C18.75 5.03601 18.592 4.65448 18.3107 4.37318C18.0294 4.09187 17.6478 3.93384 17.25 3.93384ZM17.25 20.581L12.3966 17.5482C12.2774 17.4737 12.1396 17.4342 11.9991 17.4342C11.8585 17.4342 11.7208 17.4737 11.6016 17.5482L6.75 20.581V5.43384H17.25V20.581Z" fill="#7C5E24"/>
</svg>
