<svg width="24" height="25" viewBox="0 0 24 25" fill="none" xmlns="http://www.w3.org/2000/svg">
<path d="M21 14.4338V20.4338C21 20.6327 20.921 20.8235 20.7803 20.9642C20.6397 21.1048 20.4489 21.1838 20.25 21.1838H3.75C3.55109 21.1838 3.36032 21.1048 3.21967 20.9642C3.07902 20.8235 3 20.6327 3 20.4338V14.4338C3 14.2349 3.07902 14.0442 3.21967 13.9035C3.36032 13.7629 3.55109 13.6838 3.75 13.6838C3.94891 13.6838 4.13968 13.7629 4.28033 13.9035C4.42098 14.0442 4.5 14.2349 4.5 14.4338V19.6838H19.5V14.4338C19.5 14.2349 19.579 14.0442 19.7197 13.9035C19.8603 13.7629 20.0511 13.6838 20.25 13.6838C20.4489 13.6838 20.6397 13.7629 20.7803 13.9035C20.921 14.0442 21 14.2349 21 14.4338ZM11.4694 14.9645C11.539 15.0342 11.6217 15.0895 11.7128 15.1273C11.8038 15.165 11.9014 15.1844 12 15.1844C12.0986 15.1844 12.1962 15.165 12.2872 15.1273C12.3783 15.0895 12.461 15.0342 12.5306 14.9645L16.2806 11.2145C16.3503 11.1448 16.4056 11.0621 16.4433 10.971C16.481 10.88 16.5004 10.7824 16.5004 10.6838C16.5004 10.5853 16.481 10.4877 16.4433 10.3967C16.4056 10.3056 16.3503 10.2229 16.2806 10.1532C16.2109 10.0835 16.1282 10.0283 16.0372 9.99054C15.9461 9.95283 15.8485 9.93342 15.75 9.93342C15.6515 9.93342 15.5539 9.95283 15.4628 9.99054C15.3718 10.0283 15.2891 10.0835 15.2194 10.1532L12.75 12.6235V3.93384C12.75 3.73493 12.671 3.54416 12.5303 3.40351C12.3897 3.26286 12.1989 3.18384 12 3.18384C11.8011 3.18384 11.6103 3.26286 11.4697 3.40351C11.329 3.54416 11.25 3.73493 11.25 3.93384V12.6235L8.78063 10.1532C8.63989 10.0125 8.44902 9.93342 8.25 9.93342C8.05098 9.93342 7.86011 10.0125 7.71937 10.1532C7.57864 10.2939 7.49958 10.4848 7.49958 10.6838C7.49958 10.8829 7.57864 11.0737 7.71937 11.2145L11.4694 14.9645Z" fill="#7C5E24"/>
</svg>
