<svg width="24" height="25" viewBox="0 0 24 25" fill="none" xmlns="http://www.w3.org/2000/svg">
<path d="M20.1253 7.68384H18.75V4.68384C18.75 4.48493 18.671 4.29416 18.5303 4.15351C18.3897 4.01286 18.1989 3.93384 18 3.93384H6C5.80109 3.93384 5.61032 4.01286 5.46967 4.15351C5.32902 4.29416 5.25 4.48493 5.25 4.68384V7.68384H3.87469C2.565 7.68384 1.5 8.69353 1.5 9.93384V17.4338C1.5 17.6328 1.57902 17.8235 1.71967 17.9642C1.86032 18.1048 2.05109 18.1838 2.25 18.1838H5.25V21.1838C5.25 21.3827 5.32902 21.5735 5.46967 21.7142C5.61032 21.8548 5.80109 21.9338 6 21.9338H18C18.1989 21.9338 18.3897 21.8548 18.5303 21.7142C18.671 21.5735 18.75 21.3827 18.75 21.1838V18.1838H21.75C21.9489 18.1838 22.1397 18.1048 22.2803 17.9642C22.421 17.8235 22.5 17.6328 22.5 17.4338V9.93384C22.5 8.69353 21.435 7.68384 20.1253 7.68384ZM6.75 5.43384H17.25V7.68384H6.75V5.43384ZM17.25 20.4338H6.75V15.9338H17.25V20.4338ZM21 16.6838H18.75V15.1838C18.75 14.9849 18.671 14.7942 18.5303 14.6535C18.3897 14.5129 18.1989 14.4338 18 14.4338H6C5.80109 14.4338 5.61032 14.5129 5.46967 14.6535C5.32902 14.7942 5.25 14.9849 5.25 15.1838V16.6838H3V9.93384C3 9.5204 3.39281 9.18384 3.87469 9.18384H20.1253C20.6072 9.18384 21 9.5204 21 9.93384V16.6838ZM18.75 11.8088C18.75 12.0313 18.684 12.2488 18.5604 12.4339C18.4368 12.6189 18.2611 12.7631 18.0555 12.8482C17.85 12.9334 17.6238 12.9556 17.4055 12.9122C17.1873 12.8688 16.9868 12.7617 16.8295 12.6043C16.6722 12.447 16.565 12.2465 16.5216 12.0283C16.4782 11.8101 16.5005 11.5839 16.5856 11.3783C16.6708 11.1728 16.815 10.9971 17 10.8734C17.185 10.7498 17.4025 10.6838 17.625 10.6838C17.9234 10.6838 18.2095 10.8024 18.4205 11.0133C18.6315 11.2243 18.75 11.5105 18.75 11.8088Z" fill="#7C5E24"/>
</svg>
