<svg width="24" height="25" viewBox="0 0 24 25" fill="none" xmlns="http://www.w3.org/2000/svg">
<path d="M21.9375 8.44509C21.7263 8.20577 21.4666 8.01412 21.1757 7.88287C20.8847 7.75162 20.5692 7.68377 20.25 7.68384H15V6.18384C15 5.18928 14.6049 4.23545 13.9017 3.53219C13.1984 2.82893 12.2446 2.43384 11.25 2.43384C11.1107 2.43374 10.9741 2.47245 10.8555 2.54565C10.7369 2.61884 10.6411 2.72361 10.5787 2.84821L7.03687 9.93384H3C2.60218 9.93384 2.22064 10.0919 1.93934 10.3732C1.65804 10.6545 1.5 11.036 1.5 11.4338V19.6838C1.5 20.0817 1.65804 20.4632 1.93934 20.7445C2.22064 21.0258 2.60218 21.1838 3 21.1838H19.125C19.6732 21.184 20.2025 20.9841 20.6137 20.6216C21.0249 20.2591 21.2896 19.7589 21.3581 19.2151L22.4831 10.2151C22.523 9.89823 22.495 9.57652 22.4009 9.27134C22.3068 8.96616 22.1488 8.6845 21.9375 8.44509ZM3 11.4338H6.75V19.6838H3V11.4338ZM20.9944 10.0276L19.8694 19.0276C19.8465 19.2089 19.7583 19.3756 19.6212 19.4964C19.4842 19.6173 19.3077 19.6839 19.125 19.6838H8.25V10.861L11.6916 3.97696C12.2016 4.07905 12.6606 4.35473 12.9903 4.7571C13.32 5.15946 13.5001 5.66364 13.5 6.18384V8.43384C13.5 8.63275 13.579 8.82352 13.7197 8.96417C13.8603 9.10482 14.0511 9.18384 14.25 9.18384H20.25C20.3564 9.1838 20.4616 9.20642 20.5587 9.25018C20.6557 9.29394 20.7423 9.35785 20.8127 9.43766C20.8831 9.51747 20.9357 9.61135 20.967 9.71307C20.9984 9.81478 21.0077 9.92199 20.9944 10.0276Z" fill="#92722A"/>
</svg>
