<svg width="22" height="20" viewBox="0 0 22 20" fill="none" xmlns="http://www.w3.org/2000/svg">
<path d="M21.4831 11.6526L20.3581 2.65259C20.2896 2.10873 20.0249 1.60859 19.6137 1.24608C19.2025 0.883579 18.6732 0.68365 18.125 0.683838H2C1.60218 0.683838 1.22064 0.841873 0.93934 1.12318C0.658035 1.40448 0.5 1.78601 0.5 2.18384V10.4338C0.5 10.8317 0.658035 11.2132 0.93934 11.4945C1.22064 11.7758 1.60218 11.9338 2 11.9338H6.03687L9.57875 19.0195C9.6411 19.1441 9.73693 19.2488 9.8555 19.322C9.97406 19.3952 10.1107 19.4339 10.25 19.4338C11.2446 19.4338 12.1984 19.0387 12.9017 18.3355C13.6049 17.6322 14 16.6784 14 15.6838V14.1838H19.25C19.5693 14.1839 19.8849 14.1161 20.176 13.9848C20.467 13.8535 20.7268 13.6618 20.938 13.4224C21.1492 13.1829 21.3071 12.9013 21.4011 12.5962C21.4951 12.291 21.523 11.9694 21.4831 11.6526ZM5.75 10.4338H2V2.18384H5.75V10.4338ZM19.8125 12.4298C19.7426 12.5102 19.6561 12.5745 19.5591 12.6184C19.462 12.6622 19.3565 12.6846 19.25 12.6838H13.25C13.0511 12.6838 12.8603 12.7629 12.7197 12.9035C12.579 13.0442 12.5 13.2349 12.5 13.4338V15.6838C12.5001 16.204 12.32 16.7082 11.9903 17.1106C11.6606 17.5129 11.2016 17.7886 10.6916 17.8907L7.25 11.0067V2.18384H18.125C18.3077 2.18378 18.4842 2.25042 18.6212 2.37125C18.7583 2.49209 18.8465 2.6588 18.8694 2.84009L19.9944 11.8401C20.0084 11.9457 19.9994 12.0531 19.9681 12.1549C19.9367 12.2567 19.8836 12.3504 19.8125 12.4298Z" fill="#92722A"/>
</svg>
